<svg width="1968" height="2682" viewBox="0 0 1968 2682" fill="none" xmlns="http://www.w3.org/2000/svg">
<g clip-path="url(#clip0_597_9)">
<g clip-path="url(#clip1_597_9)">
<path d="M1125.69 217.507V655.659C1125.69 703.4 1104.11 748.582 1066.98 778.588L59.4073 1718.77C22.2759 1748.77 0.697285 1793.96 0.697285 1841.7V2352.58C0.697285 2439.87 71.4593 2510.63 158.749 2510.63H1917M1125.69 209.608V647.76C1125.69 695.5 1104.11 740.682 1066.98 770.689L59.4073 1710.87C22.2759 1740.88 0.697285 1786.06 0.697285 1833.81V2344.67C0.697285 2431.96 71.4593 2502.73 158.749 2502.73H1917M1125.69 201.709V639.861C1125.69 687.601 1103.98 732.887 1066.85 762.894L59.5354 1702.87C22.404 1732.88 0.697285 1778.16 0.697285 1825.9V2336.78C0.697285 2424.06 71.4593 2494.83 158.749 2494.83H1916.5M1125.69 193.806V631.958C1125.69 679.698 1104.11 724.881 1066.98 754.887L59.4073 1695.07C22.2759 1725.08 0.697285 1770.26 0.697285 1818V2328.88C0.697285 2416.16 71.3387 2486.93 158.628 2486.93H1917M1125.69 185.904V624.056C1125.69 671.796 1104.11 716.978 1066.98 746.984L59.4073 1687.17C22.2759 1717.17 0.697285 1762.36 0.697285 1810.1V2320.98C0.697285 2408.26 71.4593 2479.03 158.749 2479.03H1917.49M1125.69 178.005V615.94C1125.69 663.692 1104.09 708.884 1066.95 738.89L59.4335 1678.67C22.2866 1708.68 0.697285 1753.87 0.697285 1801.62V2312.2C0.697285 2399.48 71.4593 2470.25 158.749 2470.25H1916M1125.69 170.106V607.824C1125.69 655.588 1104.08 700.79 1066.92 730.795L59.4597 1670.18C22.2972 1700.18 0.697285 1745.38 0.697285 1793.15V2303.41C0.697285 2390.7 71.4593 2461.47 158.749 2461.47H1917.49M1125.69 220.775V599.478C1125.69 647.218 1104.11 692.4 1066.98 722.407L59.4073 1662.59C22.2759 1692.6 0.697285 1737.78 0.697285 1785.52V2296.39C0.697285 2383.68 71.4593 2454.45 158.749 2454.45H1916.5" stroke="url(#paint0_linear_597_9)" stroke-width="1.39457"/>
</g>
</g>
<defs>
<linearGradient id="paint0_linear_597_9" x1="636.905" y1="335.168" x2="636.905" y2="2352.47" gradientUnits="userSpaceOnUse">
<stop stop-color="white"/>
<stop offset="0.395" stop-color="#4FC1A2"/>
<stop offset="0.67" stop-color="#D9D1AC"/>
<stop offset="1" stop-color="#F68D27"/>
</linearGradient>
<clipPath id="clip0_597_9">
<rect width="1918" height="2656" fill="white" transform="translate(0 12.6013)"/>
</clipPath>
<clipPath id="clip1_597_9">
<rect width="1918" height="2341.95" fill="white" transform="translate(0 169.627)"/>
</clipPath>
</defs>
</svg>
